<?xml version="1.0" encoding="UTF-8" standalone="no"?>
<!DOCTYPE svg PUBLIC "-//W3C//DTD SVG 1.1//EN"
 "http://www.w3.org/Graphics/SVG/1.1/DTD/svg11.dtd">
<!-- Generated by graphviz version 11.0.0 (20240428.1522)
 -->
<!-- Pages: 1 -->
<svg width="1438pt" height="210pt"
 viewBox="0.00 0.00 1437.63 210.00" xmlns="http://www.w3.org/2000/svg" xmlns:xlink="http://www.w3.org/1999/xlink">
<g id="graph0" class="graph" transform="scale(1 1) rotate(0) translate(4 206)">
<polygon fill="white" stroke="none" points="-4,4 -4,-206 1433.63,-206 1433.63,4 -4,4"/>
<!-- 4421176864 -->
<g id="node1" class="node">
<title>4421176864</title>
<polygon fill="none" stroke="black" points="306.75,-165.5 306.75,-201.5 492,-201.5 492,-165.5 306.75,-165.5"/>
<text text-anchor="middle" x="316.62" y="-178.7" font-family="Times,serif" font-size="14.00"> </text>
<polyline fill="none" stroke="black" points="326.5,-166 326.5,-201.5"/>
<text text-anchor="middle" x="366.38" y="-178.7" font-family="Times,serif" font-size="14.00">data 0.0665</text>
<polyline fill="none" stroke="black" points="406.25,-166 406.25,-201.5"/>
<text text-anchor="middle" x="449.12" y="-178.7" font-family="Times,serif" font-size="14.00">grad &#45;2.0000</text>
</g>
<!-- 4422360224* -->
<g id="node3" class="node">
<title>4422360224*</title>
<ellipse fill="none" stroke="black" cx="555" cy="-128.5" rx="27" ry="18"/>
<text text-anchor="middle" x="555" y="-123.45" font-family="Times,serif" font-size="14.00">*</text>
</g>
<!-- 4421176864&#45;&gt;4422360224* -->
<g id="edge14" class="edge">
<title>4421176864&#45;&gt;4422360224*</title>
<path fill="none" stroke="black" d="M466.79,-165.11C475.33,-162.4 483.92,-159.5 492,-156.5 501.98,-152.8 512.61,-148.23 522.2,-143.87"/>
<polygon fill="black" stroke="black" points="523.53,-147.11 531.13,-139.73 520.58,-140.77 523.53,-147.11"/>
</g>
<!-- 4422360224 -->
<g id="node2" class="node">
<title>4422360224</title>
<polygon fill="none" stroke="black" points="618,-110.5 618,-146.5 803.25,-146.5 803.25,-110.5 618,-110.5"/>
<text text-anchor="middle" x="627.88" y="-123.7" font-family="Times,serif" font-size="14.00"> </text>
<polyline fill="none" stroke="black" points="637.75,-111 637.75,-146.5"/>
<text text-anchor="middle" x="679.88" y="-123.7" font-family="Times,serif" font-size="14.00">data &#45;0.1331</text>
<polyline fill="none" stroke="black" points="722,-111 722,-146.5"/>
<text text-anchor="middle" x="762.62" y="-123.7" font-family="Times,serif" font-size="14.00">grad 1.0000</text>
</g>
<!-- 4422293776+ -->
<g id="node8" class="node">
<title>4422293776+</title>
<ellipse fill="none" stroke="black" cx="866.25" cy="-100.5" rx="27" ry="18"/>
<text text-anchor="middle" x="866.25" y="-95.45" font-family="Times,serif" font-size="14.00">+</text>
</g>
<!-- 4422360224&#45;&gt;4422293776+ -->
<g id="edge13" class="edge">
<title>4422360224&#45;&gt;4422293776+</title>
<path fill="none" stroke="black" d="M803.65,-111.73C812.39,-110.13 820.86,-108.59 828.58,-107.18"/>
<polygon fill="black" stroke="black" points="828.95,-110.67 838.16,-105.44 827.69,-103.79 828.95,-110.67"/>
</g>
<!-- 4422360224*&#45;&gt;4422360224 -->
<g id="edge1" class="edge">
<title>4422360224*&#45;&gt;4422360224</title>
<path fill="none" stroke="black" d="M582.41,-128.5C589.45,-128.5 597.5,-128.5 606.05,-128.5"/>
<polygon fill="black" stroke="black" points="606.04,-132 616.04,-128.5 606.04,-125 606.04,-132"/>
</g>
<!-- 4421681840 -->
<g id="node4" class="node">
<title>4421681840</title>
<polygon fill="none" stroke="black" points="306.75,-110.5 306.75,-146.5 492,-146.5 492,-110.5 306.75,-110.5"/>
<text text-anchor="middle" x="316.62" y="-123.7" font-family="Times,serif" font-size="14.00"> </text>
<polyline fill="none" stroke="black" points="326.5,-111 326.5,-146.5"/>
<text text-anchor="middle" x="368.62" y="-123.7" font-family="Times,serif" font-size="14.00">data &#45;2.0000</text>
<polyline fill="none" stroke="black" points="410.75,-111 410.75,-146.5"/>
<text text-anchor="middle" x="451.38" y="-123.7" font-family="Times,serif" font-size="14.00">grad 0.0665</text>
</g>
<!-- 4421681840&#45;&gt;4422360224* -->
<g id="edge8" class="edge">
<title>4421681840&#45;&gt;4422360224*</title>
<path fill="none" stroke="black" d="M492.4,-128.5C500.77,-128.5 508.89,-128.5 516.34,-128.5"/>
<polygon fill="black" stroke="black" points="516.28,-132 526.28,-128.5 516.28,-125 516.28,-132"/>
</g>
<!-- 4422360752 -->
<g id="node5" class="node">
<title>4422360752</title>
<polygon fill="none" stroke="black" points="309,-55.5 309,-91.5 489.75,-91.5 489.75,-55.5 309,-55.5"/>
<text text-anchor="middle" x="318.88" y="-68.7" font-family="Times,serif" font-size="14.00"> </text>
<polyline fill="none" stroke="black" points="328.75,-56 328.75,-91.5"/>
<text text-anchor="middle" x="368.62" y="-68.7" font-family="Times,serif" font-size="14.00">data 0.2355</text>
<polyline fill="none" stroke="black" points="408.5,-56 408.5,-91.5"/>
<text text-anchor="middle" x="449.12" y="-68.7" font-family="Times,serif" font-size="14.00">grad 1.0000</text>
</g>
<!-- 4422359984+ -->
<g id="node13" class="node">
<title>4422359984+</title>
<ellipse fill="none" stroke="black" cx="555" cy="-73.5" rx="27" ry="18"/>
<text text-anchor="middle" x="555" y="-68.45" font-family="Times,serif" font-size="14.00">+</text>
</g>
<!-- 4422360752&#45;&gt;4422359984+ -->
<g id="edge9" class="edge">
<title>4422360752&#45;&gt;4422359984+</title>
<path fill="none" stroke="black" d="M490.18,-73.5C499.36,-73.5 508.28,-73.5 516.4,-73.5"/>
<polygon fill="black" stroke="black" points="516.15,-77 526.15,-73.5 516.15,-70 516.15,-77"/>
</g>
<!-- 4422360752* -->
<g id="node6" class="node">
<title>4422360752*</title>
<ellipse fill="none" stroke="black" cx="243.75" cy="-73.5" rx="27" ry="18"/>
<text text-anchor="middle" x="243.75" y="-68.45" font-family="Times,serif" font-size="14.00">*</text>
</g>
<!-- 4422360752*&#45;&gt;4422360752 -->
<g id="edge2" class="edge">
<title>4422360752*&#45;&gt;4422360752</title>
<path fill="none" stroke="black" d="M271.16,-73.5C278.87,-73.5 287.79,-73.5 297.26,-73.5"/>
<polygon fill="black" stroke="black" points="297.07,-77 307.07,-73.5 297.07,-70 297.07,-77"/>
</g>
<!-- 4422293776 -->
<g id="node7" class="node">
<title>4422293776</title>
<polygon fill="none" stroke="black" points="929.25,-82.5 929.25,-118.5 1110,-118.5 1110,-82.5 929.25,-82.5"/>
<text text-anchor="middle" x="939.12" y="-95.7" font-family="Times,serif" font-size="14.00"> </text>
<polyline fill="none" stroke="black" points="949,-83 949,-118.5"/>
<text text-anchor="middle" x="988.88" y="-95.7" font-family="Times,serif" font-size="14.00">data 0.1024</text>
<polyline fill="none" stroke="black" points="1028.75,-83 1028.75,-118.5"/>
<text text-anchor="middle" x="1069.38" y="-95.7" font-family="Times,serif" font-size="14.00">grad 1.0000</text>
</g>
<!-- 4422293344ReLU -->
<g id="node11" class="node">
<title>4422293344ReLU</title>
<ellipse fill="none" stroke="black" cx="1179.44" cy="-100.5" rx="33.44" ry="18"/>
<text text-anchor="middle" x="1179.44" y="-95.45" font-family="Times,serif" font-size="14.00">ReLU</text>
</g>
<!-- 4422293776&#45;&gt;4422293344ReLU -->
<g id="edge6" class="edge">
<title>4422293776&#45;&gt;4422293344ReLU</title>
<path fill="none" stroke="black" d="M1110.14,-100.5C1118.45,-100.5 1126.6,-100.5 1134.21,-100.5"/>
<polygon fill="black" stroke="black" points="1134.16,-104 1144.16,-100.5 1134.16,-97 1134.16,-104"/>
</g>
<!-- 4422293776+&#45;&gt;4422293776 -->
<g id="edge3" class="edge">
<title>4422293776+&#45;&gt;4422293776</title>
<path fill="none" stroke="black" d="M893.62,-100.5C900.76,-100.5 908.95,-100.5 917.64,-100.5"/>
<polygon fill="black" stroke="black" points="917.36,-104 927.36,-100.5 917.36,-97 917.36,-104"/>
</g>
<!-- 4422294448 -->
<g id="node9" class="node">
<title>4422294448</title>
<polygon fill="none" stroke="black" points="0,-83.5 0,-119.5 180.75,-119.5 180.75,-83.5 0,-83.5"/>
<text text-anchor="middle" x="9.88" y="-96.7" font-family="Times,serif" font-size="14.00"> </text>
<polyline fill="none" stroke="black" points="19.75,-84 19.75,-119.5"/>
<text text-anchor="middle" x="59.62" y="-96.7" font-family="Times,serif" font-size="14.00">data 1.0000</text>
<polyline fill="none" stroke="black" points="99.5,-84 99.5,-119.5"/>
<text text-anchor="middle" x="140.12" y="-96.7" font-family="Times,serif" font-size="14.00">grad 0.2355</text>
</g>
<!-- 4422294448&#45;&gt;4422360752* -->
<g id="edge10" class="edge">
<title>4422294448&#45;&gt;4422360752*</title>
<path fill="none" stroke="black" d="M181.18,-84.89C189.97,-83.26 198.5,-81.68 206.27,-80.25"/>
<polygon fill="black" stroke="black" points="206.73,-83.72 215.92,-78.46 205.46,-76.84 206.73,-83.72"/>
</g>
<!-- 4422293344 -->
<g id="node10" class="node">
<title>4422293344</title>
<polygon fill="none" stroke="black" points="1248.88,-82.5 1248.88,-118.5 1429.63,-118.5 1429.63,-82.5 1248.88,-82.5"/>
<text text-anchor="middle" x="1258.75" y="-95.7" font-family="Times,serif" font-size="14.00"> </text>
<polyline fill="none" stroke="black" points="1268.63,-83 1268.63,-118.5"/>
<text text-anchor="middle" x="1308.5" y="-95.7" font-family="Times,serif" font-size="14.00">data 0.1024</text>
<polyline fill="none" stroke="black" points="1348.38,-83 1348.38,-118.5"/>
<text text-anchor="middle" x="1389" y="-95.7" font-family="Times,serif" font-size="14.00">grad 1.0000</text>
</g>
<!-- 4422293344ReLU&#45;&gt;4422293344 -->
<g id="edge4" class="edge">
<title>4422293344ReLU&#45;&gt;4422293344</title>
<path fill="none" stroke="black" d="M1213.14,-100.5C1220.48,-100.5 1228.65,-100.5 1237.2,-100.5"/>
<polygon fill="black" stroke="black" points="1237.1,-104 1247.1,-100.5 1237.1,-97 1237.1,-104"/>
</g>
<!-- 4422359984 -->
<g id="node12" class="node">
<title>4422359984</title>
<polygon fill="none" stroke="black" points="620.25,-55.5 620.25,-91.5 801,-91.5 801,-55.5 620.25,-55.5"/>
<text text-anchor="middle" x="630.12" y="-68.7" font-family="Times,serif" font-size="14.00"> </text>
<polyline fill="none" stroke="black" points="640,-56 640,-91.5"/>
<text text-anchor="middle" x="679.88" y="-68.7" font-family="Times,serif" font-size="14.00">data 0.2355</text>
<polyline fill="none" stroke="black" points="719.75,-56 719.75,-91.5"/>
<text text-anchor="middle" x="760.38" y="-68.7" font-family="Times,serif" font-size="14.00">grad 1.0000</text>
</g>
<!-- 4422359984&#45;&gt;4422293776+ -->
<g id="edge7" class="edge">
<title>4422359984&#45;&gt;4422293776+</title>
<path fill="none" stroke="black" d="M801.43,-89.28C810.98,-90.96 820.26,-92.59 828.64,-94.07"/>
<polygon fill="black" stroke="black" points="827.89,-97.49 838.35,-95.77 829.11,-90.59 827.89,-97.49"/>
</g>
<!-- 4422359984+&#45;&gt;4422359984 -->
<g id="edge5" class="edge">
<title>4422359984+&#45;&gt;4422359984</title>
<path fill="none" stroke="black" d="M582.41,-73.5C590.12,-73.5 599.04,-73.5 608.51,-73.5"/>
<polygon fill="black" stroke="black" points="608.32,-77 618.32,-73.5 608.32,-70 608.32,-77"/>
</g>
<!-- 4422293440 -->
<g id="node14" class="node">
<title>4422293440</title>
<polygon fill="none" stroke="black" points="0,-28.5 0,-64.5 180.75,-64.5 180.75,-28.5 0,-28.5"/>
<text text-anchor="middle" x="9.88" y="-41.7" font-family="Times,serif" font-size="14.00"> </text>
<polyline fill="none" stroke="black" points="19.75,-29 19.75,-64.5"/>
<text text-anchor="middle" x="59.62" y="-41.7" font-family="Times,serif" font-size="14.00">data 0.2355</text>
<polyline fill="none" stroke="black" points="99.5,-29 99.5,-64.5"/>
<text text-anchor="middle" x="140.12" y="-41.7" font-family="Times,serif" font-size="14.00">grad 1.0000</text>
</g>
<!-- 4422293440&#45;&gt;4422360752* -->
<g id="edge12" class="edge">
<title>4422293440&#45;&gt;4422360752*</title>
<path fill="none" stroke="black" d="M181.18,-62.52C189.89,-64.07 198.34,-65.58 206.05,-66.95"/>
<polygon fill="black" stroke="black" points="205.16,-70.35 215.62,-68.66 206.39,-63.46 205.16,-70.35"/>
</g>
<!-- 4422358496 -->
<g id="node15" class="node">
<title>4422358496</title>
<polygon fill="none" stroke="black" points="309,-0.5 309,-36.5 489.75,-36.5 489.75,-0.5 309,-0.5"/>
<text text-anchor="middle" x="318.88" y="-13.7" font-family="Times,serif" font-size="14.00"> </text>
<polyline fill="none" stroke="black" points="328.75,-1 328.75,-36.5"/>
<text text-anchor="middle" x="368.62" y="-13.7" font-family="Times,serif" font-size="14.00">data 0.0000</text>
<polyline fill="none" stroke="black" points="408.5,-1 408.5,-36.5"/>
<text text-anchor="middle" x="449.12" y="-13.7" font-family="Times,serif" font-size="14.00">grad 1.0000</text>
</g>
<!-- 4422358496&#45;&gt;4422359984+ -->
<g id="edge11" class="edge">
<title>4422358496&#45;&gt;4422359984+</title>
<path fill="none" stroke="black" d="M466.79,-36.89C475.33,-39.6 483.92,-42.5 492,-45.5 501.98,-49.2 512.61,-53.77 522.2,-58.13"/>
<polygon fill="black" stroke="black" points="520.58,-61.23 531.13,-62.27 523.53,-54.89 520.58,-61.23"/>
</g>
</g>
</svg>
